<?xml version="1.0" encoding="UTF-8" standalone="no"?>
<svg
   version="1.1"
   id="svg1"
   sodipodi:docname="social-icons-itchio.svg"
   inkscape:version="1.3 (0e150ed6c4, 2023-07-21)"
   width="20.000999"
   height="14.39343"
   xmlns:inkscape="http://www.inkscape.org/namespaces/inkscape"
   xmlns:sodipodi="http://sodipodi.sourceforge.net/DTD/sodipodi-0.dtd"
   xmlns="http://www.w3.org/2000/svg"
   xmlns:svg="http://www.w3.org/2000/svg">
  <defs
     id="defs1" />
  <sodipodi:namedview
     id="namedview1"
     pagecolor="#ffffff"
     bordercolor="#000000"
     borderopacity="0.25"
     inkscape:showpageshadow="2"
     inkscape:pageopacity="0.0"
     inkscape:pagecheckerboard="0"
     inkscape:deskcolor="#d1d1d1"
     inkscape:zoom="42.916667"
     inkscape:cx="13.21165"
     inkscape:cy="10.287378"
     inkscape:window-width="1920"
     inkscape:window-height="1057"
     inkscape:window-x="-8"
     inkscape:window-y="-8"
     inkscape:window-maximized="1"
     inkscape:current-layer="svg1" />
  <g
     id="itchio"
     inkscape:label="#itchio">
    <path
       d="M 2.0859756,0.08901354 C 1.3880638,0.50340475 0.01304142,2.0830471 0,2.4973079 v 0.685718 c 0,0.8692108 0.81248064,1.6331774 1.5501687,1.6331774 0.8857735,0 1.6237876,-0.7341017 1.6238528,-1.6053992 0,0.8712975 0.7127137,1.6053992 1.5985524,1.6053992 0.8859038,0 1.5757299,-0.7341017 1.5757299,-1.6053992 0,0.8712975 0.7578371,1.6053992 1.6436757,1.6053992 h 0.016041 c 0.8859038,0 1.6437409,-0.7341017 1.6437409,-1.6053992 0,0.8712975 0.6898916,1.6053992 1.5756646,1.6053992 0.885839,0 1.598553,-0.7341017 1.598553,-1.6053992 0,0.8712975 0.738144,1.6053992 1.623852,1.6053992 C 15.187519,4.8162033 16,4.0523671 16,3.1830259 V 2.4973079 C 15.986959,2.0829819 14.611936,0.50327433 13.914155,0.08901354 11.744975,0.01285163 10.241169,-3.2021354e-4 7.9999348,5.8220288e-6 5.7587663,2.0144337e-4 2.7032913,0.03521767 2.0858452,0.08901354 Z M 6.3370882,4.406833 a 1.8274294,1.8274294 0 0 1 -0.31169,0.4013498 C 5.6910161,5.1351313 5.2326753,5.337795 4.7273854,5.337795 A 1.857229,1.857229 0 0 1 3.4266338,4.807922 C 3.305479,4.689245 3.2134066,4.562352 3.1290938,4.4145927 l -3.913e-4,2.608e-4 C 3.044455,4.5628736 2.9270821,4.6897015 2.8056665,4.8085088 A 1.8584028,1.8584028 0 0 1 1.504915,5.3379906 c -0.060904,0 -0.1242848,-0.016823 -0.1755376,-0.034429 -0.071206,0.741535 -0.1012666,1.4502059 -0.1118954,1.966907 l -1.304e-4,0.00293 c -0.0013,0.2623934 -0.00261,0.4781637 -0.00391,0.7779208 0.013694,1.5558418 -0.1540844,5.0427266 0.6859788,5.8994836 1.3017949,0.303539 3.6972434,0.441778 6.1004516,0.442626 h 3.912e-4 c 2.4031428,-8.48e-4 4.7985908,-0.139087 6.1003858,-0.442626 0.840063,-0.856822 0.672286,-4.343707 0.685979,-5.8995488 -0.0014,-0.2996919 -0.0026,-0.5154622 -0.0039,-0.7779208 l -1.96e-4,-0.00293 c -0.01056,-0.5168315 -0.04062,-1.2254373 -0.11183,-1.9669726 -0.05125,0.017606 -0.114569,0.034429 -0.175538,0.034429 A 1.8584028,1.8584028 0 0 1 13.194399,4.8083784 C 13.072983,4.6895711 12.95561,4.5628084 12.871297,4.4147231 l -3.91e-4,-2.608e-4 c -0.08438,0.1477593 -0.176385,0.2747175 -0.29754,0.3933293 A 1.8570986,1.8570986 0 0 1 11.27268,5.3375994 c -0.505225,0 -0.963631,-0.2027942 -1.298013,-0.5296774 A 1.8274294,1.8274294 0 0 1 9.662977,4.4065722 1.8251471,1.8251471 0 0 1 9.3541561,4.807922 1.8577507,1.8577507 0 0 1 8.0532742,5.3376646 c -0.017606,0 -0.035212,-7.825e-4 -0.052818,-0.0013 H 8 c -0.017606,5.217e-4 -0.035212,0.0013 -0.053013,0.0013 A 1.8577507,1.8577507 0 0 1 6.6461047,4.8079872 1.8252775,1.8252775 0 0 1 6.3372838,4.4066374 Z m -1.335833,1.7273365 -1.304e-4,6.52e-4 h 9.781e-4 c 0.5290253,0.00111 0.998973,0 1.5812725,0.6355086 0.4582756,-0.048058 0.9371567,-0.072054 1.416429,-0.071337 h 3.912e-4 C 8.4794679,6.6983414 8.958349,6.7222724 9.4166898,6.7703301 9.9989893,6.1347563 10.468937,6.1358649 10.997962,6.1348215 h 9.13e-4 l -1.3e-4,-6.52e-4 c 0.249939,0 1.249759,0 1.946432,1.9566698 l 0.748317,2.6842507 c 0.554521,1.996903 -0.177559,2.045743 -1.090719,2.047503 -1.354222,-0.0504 -2.104038,-1.033859 -2.104038,-2.017182 -0.7496214,0.12285 -1.624114,0.184276 -2.4986066,0.184341 h -3.912e-4 c -0.8745578,0 -1.7490504,-0.06149 -2.4986062,-0.184341 0,0.983323 -0.7498818,1.966777 -2.104038,2.017182 -0.9131604,-0.0018 -1.6451755,-0.05053 -1.0906542,-2.047503 L 3.0549533,8.0909046 C 3.7516261,6.1342347 4.7514468,6.1342347 5.0013857,6.1342347 Z m 2.9985492,1.5377141 v 3.913e-4 c -0.0013,0.0013 -1.4256232,1.3093588 -1.6816915,1.7746116 l 0.9327226,-0.037364 v 0.8133935 c 0,0.03808 0.3742888,0.02256 0.7489689,0.0052 h 3.912e-4 c 0.3745497,0.01734 0.7489037,0.03286 0.7489037,-0.0052 V 9.4095228 l 0.9327226,0.037364 C 9.4256883,8.9816337 8.0001304,7.6722749 8.0001304,7.6722749 v -3.913e-4 l -1.956e-4,1.305e-4 z"
       color="#000000"
       id="icon"
       style="stroke-width:0.0652071"
       inkscape:label="#icon" />
    <rect
       style="fill:none;stroke-width:0.8"
       id="rect1"
       width="1.2815534"
       height="3.6116505"
       x="18.687378"
       y="5.0796118" />
  </g>
</svg>
