<?xml version="1.0" encoding="UTF-8" standalone="no"?>
<svg
   id="Discord-Logo"
   viewBox="0 0 16 16"
   version="1.1"
   sodipodi:docname="Discord-Symbol-White.svg"
   inkscape:version="1.3.2 (091e20e, 2023-11-25, custom)"
   width="16"
   height="16"
   xmlns:inkscape="http://www.inkscape.org/namespaces/inkscape"
   xmlns:sodipodi="http://sodipodi.sourceforge.net/DTD/sodipodi-0.dtd"
   xmlns="http://www.w3.org/2000/svg"
   xmlns:svg="http://www.w3.org/2000/svg">
  <sodipodi:namedview
     id="namedview1"
     pagecolor="#000000"
     bordercolor="#000000"
     borderopacity="0.25"
     inkscape:showpageshadow="2"
     inkscape:pageopacity="0.0"
     inkscape:pagecheckerboard="0"
     inkscape:deskcolor="#d1d1d1"
     inkscape:zoom="33.875"
     inkscape:cx="11.837638"
     inkscape:cy="8.9594096"
     inkscape:window-width="1920"
     inkscape:window-height="1009"
     inkscape:window-x="-8"
     inkscape:window-y="-8"
     inkscape:window-maximized="1"
     inkscape:current-layer="Discord-Logo" />
  <defs
     id="defs1">
    <style
       id="style1">.cls-1{fill:#fff;}</style>
  </defs>
  <path
     id="discord"
     class="cls-1"
     d="M 10.156363,2.0369004 C 10.004172,2.3071087 9.8675115,2.5866383 9.7432835,2.8723781 8.5630535,2.6953463 7.361079,2.6953463 6.1777478,2.8723781 6.0566196,2.5866383 5.9168486,2.3071087 5.7646697,2.0369004 4.6558726,2.2263647 3.5750271,2.5586866 2.5500973,3.0276683 0.51885602,6.0372571 -0.03088188,8.9691886 0.24243762,11.860748 1.4319788,12.739708 2.7644022,13.410575 4.1837797,13.839185 4.5036813,13.410575 4.7863222,12.954013 5.0285787,12.478821 4.5689061,12.308 4.124765,12.093696 3.6992665,11.845229 c 0.111807,-0.08076 0.220515,-0.164612 0.3261118,-0.245367 2.4940129,1.174021 5.3824742,1.174021 7.8795837,0 0.105597,0.08697 0.214306,0.17082 0.326112,0.245367 -0.425498,0.251565 -0.869639,0.462771 -1.33241,0.636703 0.242256,0.475193 0.524884,0.931754 0.844799,1.360364 1.419339,-0.42861 2.751751,-1.096377 3.941391,-1.975326 C 16.007781,8.5126273 15.131968,5.6055362 13.370873,3.0307794 12.349103,2.5617978 11.268258,2.2294636 10.159462,2.0431105 Z M 5.376432,10.081097 c -0.7671416,0 -1.403846,-0.6957189 -1.403846,-1.5560372 0,-0.8603182 0.6118516,-1.5591485 1.4007471,-1.5591485 0.7888956,0 1.4162663,0.7019292 1.403846,1.5591485 -0.01242,0.8572193 -0.6180616,1.5560372 -1.4007471,1.5560372 z m 5.174378,0 c -0.7702655,0 -1.4007465,-0.6957189 -1.4007465,-1.5560372 0,-0.8603182 0.611852,-1.5591485 1.4007465,-1.5591485 0.788896,0 1.413167,0.7019292 1.400735,1.5591485 -0.01242,0.8572193 -0.618062,1.5560372 -1.400735,1.5560372 z"
     inkscape:label="#discord"
     style="stroke-width:0.122973;image-rendering:auto" />
</svg>
